<svg width="416" height="308" viewBox="0 0 416 308" fill="none" xmlns="http://www.w3.org/2000/svg">
<rect x="26" y="32" width="347" height="242" fill="#FFFDFD"/>
<g filter="url(#filter0_d_2016_44)">
<path d="M155.333 0.334075C120.533 0.867408 72.6667 3.53407 59.3333 5.66741C40.9333 8.60074 26.9333 15.8007 19.6 26.2007C8.26667 42.4674 4 75.1341 4 144.334C4 211.267 7.86667 250.201 16.2667 267.001C21.3333 277.134 38.5333 287.934 54.6667 291.267C80.6667 296.467 138 299.267 221.333 299.401C294.267 299.401 352.267 295.267 372.4 288.601C382.267 285.267 394.667 276.467 398.667 269.801C400.133 267.401 401.867 262.467 402.667 258.867C409.333 228.201 411.333 201.134 411.333 142.734C411.333 73.5341 407.067 38.6007 396.8 24.7341C391.067 17.0007 375.6 8.86741 361.333 6.20074C338.667 1.80074 239.333 -0.999259 155.333 0.334075ZM179.867 51.6674C181.2 54.8674 183.2 79.6674 185.333 115.401C186 126.734 187.467 151.667 188.667 170.734C189.733 189.801 191.067 212.067 191.6 220.201C192.4 236.067 191.467 242.867 189.2 236.867C188.533 235.134 187.333 226.067 186.667 216.867C185.867 207.667 185.067 197.934 184.667 195.401C184.267 192.867 183.333 185.001 182.667 178.067C182 171.134 180.533 156.334 179.333 145.401C174 92.8674 171.467 54.8674 173.2 51.5341C175.2 47.9341 178.4 47.9341 179.867 51.6674ZM197.333 51.4007C198.267 53.1341 199.067 85.0007 199.6 146.067L200.4 238.067H197.6C194.933 238.067 194.667 237.401 194.667 229.001C194.533 205.667 188.8 78.8674 187.2 64.3341C186.133 54.6007 188.267 48.7341 192.8 48.7341C194.533 48.7341 196.533 49.9341 197.333 51.4007ZM213.333 50.0674C215.6 51.4007 215.6 54.0674 213.333 96.0674C212.533 109.267 211.333 134.201 210.533 151.401C209.733 168.601 208.933 185.401 208.667 188.734C208.533 192.067 208.267 204.467 208.133 216.334C208 237.001 207.867 238.067 205.333 238.067C202.8 238.067 202.8 237.001 203.467 152.334C203.733 105.267 204.267 63.5341 204.667 59.6674C205.333 49.9341 208.267 46.8674 213.333 50.0674ZM156.533 57.8007C157.6 65.2674 160.933 92.6007 162.667 109.401C163.467 115.934 164.267 122.867 164.667 124.734C164.933 126.601 165.867 134.067 166.667 141.401C167.467 148.734 168.933 161.667 170 170.067C173.733 198.867 177.2 238.734 176.133 239.801C172.933 243.001 139.733 246.201 138 243.534C137.333 242.334 136.667 237.801 132.667 203.401C131.6 193.534 130 180.867 129.333 175.401C128.667 169.934 127.067 157.267 126 147.401C122.933 120.067 120.133 97.5341 117.867 82.4674C116.933 75.0007 116 66.2007 116 62.8674C116 57.4007 116.4 56.7341 119.733 55.8007C125.867 54.3341 152.533 50.6007 154.133 51.1341C154.933 51.4007 156 54.3341 156.533 57.8007ZM232 52.0674C233.733 54.2007 233.2 65.9341 230.667 82.7341C229.6 89.6674 228.4 99.9341 224.667 137.401C224.133 141.801 222.933 153.134 221.867 162.734C220.8 172.201 219.333 185.134 218.667 191.401C213.733 237.401 213.2 240.334 210.533 238.734C208.933 237.667 208.933 228.734 210.667 212.067C211.333 204.734 212.933 183.401 214 164.734C218.8 85.6674 221.067 57.5341 222.933 53.4007C224.667 49.6674 229.333 48.8674 232 52.0674ZM164.933 53.0007C165.733 53.9341 166.667 58.3341 167.067 62.7341C167.467 67.1341 169.333 83.6674 171.2 99.4007C173.067 115.134 175.2 137.401 176 148.734C176.667 160.067 178.267 176.867 179.333 186.067C183.867 224.467 185.333 238.467 184.8 239.134C182.8 241.001 180 237.667 180 233.534C180 231.001 179.067 221.801 177.867 213.134C176.8 204.467 175.333 188.734 174.533 178.067C173.867 167.401 172.8 154.467 172 149.401C171.333 144.201 169.867 131.667 168.667 121.401C167.6 111.134 165.733 95.2674 164.667 86.0674C161.333 59.9341 160.8 51.4007 162.267 51.4007C163.067 51.4007 164.267 52.2007 164.933 53.0007ZM248.133 53.5341C250 55.8007 248.8 69.4007 244.667 91.4007C243.467 97.6674 241.6 109.934 240.533 118.734C239.467 127.534 238.133 137.667 237.467 141.401C236.667 145.001 234.933 155.001 233.467 163.401C232 171.801 229.867 183.801 228.8 190.067C227.6 196.334 226 205.534 225.2 210.734C221.867 232.734 220.667 238.601 218.8 239.134C217.2 239.667 217.067 238.067 217.733 229.934C218.267 224.467 219.2 215.801 220 210.734C220.8 205.534 222.267 194.201 223.333 185.401C224.4 176.601 226.133 161.934 227.333 152.734C228.4 143.534 230.267 128.867 231.333 120.067C232.4 111.267 234.267 97.4007 235.467 89.4007C236.533 81.2674 237.867 70.4674 238.267 65.4007C238.667 60.2007 239.6 55.0007 240.267 53.6674C241.733 50.8674 245.733 50.7341 248.133 53.5341ZM265.067 55.6674C267.467 58.0674 267.067 63.6674 262.8 81.2674C260.667 90.2007 257.333 104.601 255.333 113.401C253.467 122.201 250.667 134.201 249.2 140.067C245.733 155.001 242.8 168.867 240.667 181.401C239.6 187.267 237.733 196.201 236.533 201.401C235.333 206.467 233.867 213.401 233.2 216.734C229.733 235.267 228.4 240.067 226.533 240.067C224.133 240.067 224.267 236.734 227.2 221.401C228.4 214.734 230.267 204.867 231.333 199.401C232.267 193.934 234.133 184.334 235.2 178.067C236.4 171.801 238 161.667 238.667 155.401C239.467 149.134 240.533 141.401 241.2 138.067C242 134.734 243.467 126.601 244.667 120.067C245.867 113.401 247.333 105.667 248 102.734C248.533 99.8007 250.133 91.9341 251.333 85.4007C255.067 65.1341 256.267 60.2007 258.133 57.0007C260.267 53.8007 262.667 53.2674 265.067 55.6674ZM280 60.7341C281.2 62.8674 280.667 66.2007 278 75.8007C276 82.6007 273.867 90.7341 273.333 94.0674C272 101.534 270 108.867 262.267 136.067C247.6 187.001 242.4 205.934 240.667 214.734C236.8 234.334 235.733 238.734 234.533 239.934C231.867 242.734 231.867 239.001 234.667 227.134C236.133 220.334 238.133 210.867 238.933 206.067C240.267 197.801 246.4 172.201 263.867 100.334C268.4 82.2007 272 66.3341 272 65.1341C272 62.8674 275.733 58.0674 277.467 58.0674C278.133 58.0674 279.2 59.2674 280 60.7341ZM309.067 66.0674C318.267 69.0007 326.933 72.4674 328.267 73.6674C332.533 77.5341 332.933 75.8007 310.533 146.867C308.4 153.534 306.667 160.334 306.667 161.801C306.667 163.267 302.667 177.267 297.867 193.001C292.933 208.601 287.6 226.467 285.867 232.601C282.4 245.134 280 249.401 276 250.734C274.533 251.134 267.867 250.067 261.067 248.201C254.267 246.334 246.4 244.467 243.467 244.067L238.267 243.267L239.2 236.201C239.6 232.334 241.867 222.867 244.133 215.267C246.4 207.667 248.933 198.334 250 194.734C252.533 185.401 262.133 151.667 264 146.067C266.8 137.001 270.533 122.467 272.533 112.734C273.733 107.134 276.4 97.2674 278.4 90.7341C280.533 84.0674 283.467 74.7341 284.8 69.6674C286.8 62.7341 287.867 60.7341 289.867 60.7341C291.2 60.7341 299.867 63.1341 309.067 66.0674ZM111.733 72.6007C112 77.5341 111.6 80.2007 110.4 80.8674C109.467 81.5341 104.533 82.0674 99.3333 82.2007C84.5333 82.4674 82.1333 83.2674 81.6 88.4674C81.3333 90.7341 81.7333 92.7341 82.4 92.7341C83.0667 92.7341 90 91.8007 98 90.7341C113.2 88.6007 114.533 88.8674 114.667 94.2007C114.667 97.9341 111.733 99.0007 99.0667 99.8007C92.4 100.334 85.3333 101.401 83.6 102.201L80.2667 103.801L83.2 106.867C86 110.067 86.2667 110.067 99.8667 108.734C107.467 108.067 114.133 107.801 114.8 108.201C116.933 109.401 116.133 113.801 113.733 114.601C112.4 115.001 106.267 115.667 100 116.201C88 117.134 84 118.334 84 121.267C84 125.801 87.6 126.467 102.267 124.867C113.867 123.534 116.667 123.534 117.467 125.001C119.467 128.201 115.333 129.934 101.733 131.534C85.7333 133.401 84.4 133.934 86.8 137.934C88.8 141.134 91.8667 141.267 107.333 139.534C113.867 138.734 117.067 138.867 118.133 139.934C120.133 141.934 121.467 147.667 120.267 149.534C119.733 150.334 113.467 151.801 106.4 152.734C99.2 153.801 92.8 154.867 92.1333 155.401C91.3333 155.801 90.5333 157.667 90.4 159.401C90 163.134 90 163.134 112.667 161.934C121.333 161.401 122 161.667 122.4 164.201C122.8 167.401 120.4 168.201 105.067 169.667C94.4 170.601 90.5333 172.734 92.8 176.334C94.5333 179.001 96.4 179.134 112.933 177.667L123.733 176.734L124.667 180.734C125.867 186.334 123.6 188.734 116.8 188.867C108.533 189.134 94.2667 191.934 93.7333 193.401C93.6 194.067 94.4 196.067 95.7333 197.534C98 200.334 98.2667 200.334 111.333 198.601C124.533 196.867 127.733 197.401 126.4 201.001C125.867 202.201 120.933 203.401 112.533 204.601C98.1333 206.467 92.6667 209.134 97.0667 212.067C98.8 213.401 102.4 213.401 112.533 212.467C124.667 211.134 125.867 211.267 127.6 213.534C128.533 214.867 128.933 216.334 128.4 216.867C127.733 217.401 121.067 218.867 113.333 220.067C100.133 222.067 94.4 224.201 98.4 225.667C99.2 226.067 100 227.267 100 228.334C100 230.201 101.2 230.334 108.4 229.401C112.933 228.734 119.6 228.201 123.2 228.201L129.867 228.067L130.933 233.267C131.6 236.201 131.6 239.001 131.067 239.534C129.467 241.134 101.067 244.734 90.6667 244.734C85.4667 244.734 81.0667 244.067 80.5333 243.267C80.1333 242.467 78.8 233.001 77.8667 222.334C75.2 195.267 72 167.001 70.5333 157.401C69.8667 153.001 68.8 143.934 68.1333 137.401C67.3333 130.734 65.2 113.534 63.3333 99.1341C60.5333 77.4007 60.1333 69.6674 61.8667 68.6007C63.2 67.6674 92.6667 65.1341 100.667 65.2674L111.333 65.4007L111.733 72.6007ZM353.067 110.067C354.667 111.534 356.267 112.734 356.8 112.734C360.133 112.734 365.333 124.734 365.333 132.601C365.333 139.934 362.267 145.401 354.8 151.534C350.4 155.001 349.333 156.734 349.333 160.201C349.333 164.067 350.133 165.001 354.533 167.401C362.4 171.401 366.667 177.667 366.667 185.267C366.667 188.867 365.733 193.267 364.533 195.401C362.133 199.267 356.267 203.401 352.8 203.401C350.533 203.401 349.867 205.534 348.8 216.334C347.733 227.267 343.733 231.401 334.133 231.401C321.6 231.401 314.133 215.801 324.133 210.734C329.333 207.934 332.8 208.201 336.133 211.534C338.267 213.667 338.8 215.267 338 218.867C337.467 222.334 337.6 223.401 339.2 223.401C342.133 223.401 344 219.134 344 212.467C344 205.667 342.267 203.401 336.933 203.401C331.333 203.401 322.133 193.934 320 186.067C318.133 179.134 318.933 169.267 322 163.534C324.667 158.334 333.867 149.401 339.333 146.734L343.733 144.734L344.267 127.801C344.533 118.334 345.2 109.934 345.733 109.001C347.333 106.734 349.733 107.001 353.067 110.067Z" fill="#D92A1D"/>
<path d="M155.333 0.334075C120.533 0.867408 72.6667 3.53407 59.3333 5.66741C40.9333 8.60074 26.9333 15.8007 19.6 26.2007C8.26667 42.4674 4 75.1341 4 144.334C4 211.267 7.86667 250.201 16.2667 267.001C21.3333 277.134 38.5333 287.934 54.6667 291.267C80.6667 296.467 138 299.267 221.333 299.401C294.267 299.401 352.267 295.267 372.4 288.601C382.267 285.267 394.667 276.467 398.667 269.801C400.133 267.401 401.867 262.467 402.667 258.867C409.333 228.201 411.333 201.134 411.333 142.734C411.333 73.5341 407.067 38.6007 396.8 24.7341C391.067 17.0007 375.6 8.86741 361.333 6.20074C338.667 1.80074 239.333 -0.999259 155.333 0.334075ZM179.867 51.6674C181.2 54.8674 183.2 79.6674 185.333 115.401C186 126.734 187.467 151.667 188.667 170.734C189.733 189.801 191.067 212.067 191.6 220.201C192.4 236.067 191.467 242.867 189.2 236.867C188.533 235.134 187.333 226.067 186.667 216.867C185.867 207.667 185.067 197.934 184.667 195.401C184.267 192.867 183.333 185.001 182.667 178.067C182 171.134 180.533 156.334 179.333 145.401C174 92.8674 171.467 54.8674 173.2 51.5341C175.2 47.9341 178.4 47.9341 179.867 51.6674ZM197.333 51.4007C198.267 53.1341 199.067 85.0007 199.6 146.067L200.4 238.067H197.6C194.933 238.067 194.667 237.401 194.667 229.001C194.533 205.667 188.8 78.8674 187.2 64.3341C186.133 54.6007 188.267 48.7341 192.8 48.7341C194.533 48.7341 196.533 49.9341 197.333 51.4007ZM213.333 50.0674C215.6 51.4007 215.6 54.0674 213.333 96.0674C212.533 109.267 211.333 134.201 210.533 151.401C209.733 168.601 208.933 185.401 208.667 188.734C208.533 192.067 208.267 204.467 208.133 216.334C208 237.001 207.867 238.067 205.333 238.067C202.8 238.067 202.8 237.001 203.467 152.334C203.733 105.267 204.267 63.5341 204.667 59.6674C205.333 49.9341 208.267 46.8674 213.333 50.0674ZM156.533 57.8007C157.6 65.2674 160.933 92.6007 162.667 109.401C163.467 115.934 164.267 122.867 164.667 124.734C164.933 126.601 165.867 134.067 166.667 141.401C167.467 148.734 168.933 161.667 170 170.067C173.733 198.867 177.2 238.734 176.133 239.801C172.933 243.001 139.733 246.201 138 243.534C137.333 242.334 136.667 237.801 132.667 203.401C131.6 193.534 130 180.867 129.333 175.401C128.667 169.934 127.067 157.267 126 147.401C122.933 120.067 120.133 97.5341 117.867 82.4674C116.933 75.0007 116 66.2007 116 62.8674C116 57.4007 116.4 56.7341 119.733 55.8007C125.867 54.3341 152.533 50.6007 154.133 51.1341C154.933 51.4007 156 54.3341 156.533 57.8007ZM232 52.0674C233.733 54.2007 233.2 65.9341 230.667 82.7341C229.6 89.6674 228.4 99.9341 224.667 137.401C224.133 141.801 222.933 153.134 221.867 162.734C220.8 172.201 219.333 185.134 218.667 191.401C213.733 237.401 213.2 240.334 210.533 238.734C208.933 237.667 208.933 228.734 210.667 212.067C211.333 204.734 212.933 183.401 214 164.734C218.8 85.6674 221.067 57.5341 222.933 53.4007C224.667 49.6674 229.333 48.8674 232 52.0674ZM164.933 53.0007C165.733 53.9341 166.667 58.3341 167.067 62.7341C167.467 67.1341 169.333 83.6674 171.2 99.4007C173.067 115.134 175.2 137.401 176 148.734C176.667 160.067 178.267 176.867 179.333 186.067C183.867 224.467 185.333 238.467 184.8 239.134C182.8 241.001 180 237.667 180 233.534C180 231.001 179.067 221.801 177.867 213.134C176.8 204.467 175.333 188.734 174.533 178.067C173.867 167.401 172.8 154.467 172 149.401C171.333 144.201 169.867 131.667 168.667 121.401C167.6 111.134 165.733 95.2674 164.667 86.0674C161.333 59.9341 160.8 51.4007 162.267 51.4007C163.067 51.4007 164.267 52.2007 164.933 53.0007ZM248.133 53.5341C250 55.8007 248.8 69.4007 244.667 91.4007C243.467 97.6674 241.6 109.934 240.533 118.734C239.467 127.534 238.133 137.667 237.467 141.401C236.667 145.001 234.933 155.001 233.467 163.401C232 171.801 229.867 183.801 228.8 190.067C227.6 196.334 226 205.534 225.2 210.734C221.867 232.734 220.667 238.601 218.8 239.134C217.2 239.667 217.067 238.067 217.733 229.934C218.267 224.467 219.2 215.801 220 210.734C220.8 205.534 222.267 194.201 223.333 185.401C224.4 176.601 226.133 161.934 227.333 152.734C228.4 143.534 230.267 128.867 231.333 120.067C232.4 111.267 234.267 97.4007 235.467 89.4007C236.533 81.2674 237.867 70.4674 238.267 65.4007C238.667 60.2007 239.6 55.0007 240.267 53.6674C241.733 50.8674 245.733 50.7341 248.133 53.5341ZM265.067 55.6674C267.467 58.0674 267.067 63.6674 262.8 81.2674C260.667 90.2007 257.333 104.601 255.333 113.401C253.467 122.201 250.667 134.201 249.2 140.067C245.733 155.001 242.8 168.867 240.667 181.401C239.6 187.267 237.733 196.201 236.533 201.401C235.333 206.467 233.867 213.401 233.2 216.734C229.733 235.267 228.4 240.067 226.533 240.067C224.133 240.067 224.267 236.734 227.2 221.401C228.4 214.734 230.267 204.867 231.333 199.401C232.267 193.934 234.133 184.334 235.2 178.067C236.4 171.801 238 161.667 238.667 155.401C239.467 149.134 240.533 141.401 241.2 138.067C242 134.734 243.467 126.601 244.667 120.067C245.867 113.401 247.333 105.667 248 102.734C248.533 99.8007 250.133 91.9341 251.333 85.4007C255.067 65.1341 256.267 60.2007 258.133 57.0007C260.267 53.8007 262.667 53.2674 265.067 55.6674ZM280 60.7341C281.2 62.8674 280.667 66.2007 278 75.8007C276 82.6007 273.867 90.7341 273.333 94.0674C272 101.534 270 108.867 262.267 136.067C247.6 187.001 242.4 205.934 240.667 214.734C236.8 234.334 235.733 238.734 234.533 239.934C231.867 242.734 231.867 239.001 234.667 227.134C236.133 220.334 238.133 210.867 238.933 206.067C240.267 197.801 246.4 172.201 263.867 100.334C268.4 82.2007 272 66.3341 272 65.1341C272 62.8674 275.733 58.0674 277.467 58.0674C278.133 58.0674 279.2 59.2674 280 60.7341ZM309.067 66.0674C318.267 69.0007 326.933 72.4674 328.267 73.6674C332.533 77.5341 332.933 75.8007 310.533 146.867C308.4 153.534 306.667 160.334 306.667 161.801C306.667 163.267 302.667 177.267 297.867 193.001C292.933 208.601 287.6 226.467 285.867 232.601C282.4 245.134 280 249.401 276 250.734C274.533 251.134 267.867 250.067 261.067 248.201C254.267 246.334 246.4 244.467 243.467 244.067L238.267 243.267L239.2 236.201C239.6 232.334 241.867 222.867 244.133 215.267C246.4 207.667 248.933 198.334 250 194.734C252.533 185.401 262.133 151.667 264 146.067C266.8 137.001 270.533 122.467 272.533 112.734C273.733 107.134 276.4 97.2674 278.4 90.7341C280.533 84.0674 283.467 74.7341 284.8 69.6674C286.8 62.7341 287.867 60.7341 289.867 60.7341C291.2 60.7341 299.867 63.1341 309.067 66.0674ZM111.733 72.6007C112 77.5341 111.6 80.2007 110.4 80.8674C109.467 81.5341 104.533 82.0674 99.3333 82.2007C84.5333 82.4674 82.1333 83.2674 81.6 88.4674C81.3333 90.7341 81.7333 92.7341 82.4 92.7341C83.0667 92.7341 90 91.8007 98 90.7341C113.2 88.6007 114.533 88.8674 114.667 94.2007C114.667 97.9341 111.733 99.0007 99.0667 99.8007C92.4 100.334 85.3333 101.401 83.6 102.201L80.2667 103.801L83.2 106.867C86 110.067 86.2667 110.067 99.8667 108.734C107.467 108.067 114.133 107.801 114.8 108.201C116.933 109.401 116.133 113.801 113.733 114.601C112.4 115.001 106.267 115.667 100 116.201C88 117.134 84 118.334 84 121.267C84 125.801 87.6 126.467 102.267 124.867C113.867 123.534 116.667 123.534 117.467 125.001C119.467 128.201 115.333 129.934 101.733 131.534C85.7333 133.401 84.4 133.934 86.8 137.934C88.8 141.134 91.8667 141.267 107.333 139.534C113.867 138.734 117.067 138.867 118.133 139.934C120.133 141.934 121.467 147.667 120.267 149.534C119.733 150.334 113.467 151.801 106.4 152.734C99.2 153.801 92.8 154.867 92.1333 155.401C91.3333 155.801 90.5333 157.667 90.4 159.401C90 163.134 90 163.134 112.667 161.934C121.333 161.401 122 161.667 122.4 164.201C122.8 167.401 120.4 168.201 105.067 169.667C94.4 170.601 90.5333 172.734 92.8 176.334C94.5333 179.001 96.4 179.134 112.933 177.667L123.733 176.734L124.667 180.734C125.867 186.334 123.6 188.734 116.8 188.867C108.533 189.134 94.2667 191.934 93.7333 193.401C93.6 194.067 94.4 196.067 95.7333 197.534C98 200.334 98.2667 200.334 111.333 198.601C124.533 196.867 127.733 197.401 126.4 201.001C125.867 202.201 120.933 203.401 112.533 204.601C98.1333 206.467 92.6667 209.134 97.0667 212.067C98.8 213.401 102.4 213.401 112.533 212.467C124.667 211.134 125.867 211.267 127.6 213.534C128.533 214.867 128.933 216.334 128.4 216.867C127.733 217.401 121.067 218.867 113.333 220.067C100.133 222.067 94.4 224.201 98.4 225.667C99.2 226.067 100 227.267 100 228.334C100 230.201 101.2 230.334 108.4 229.401C112.933 228.734 119.6 228.201 123.2 228.201L129.867 228.067L130.933 233.267C131.6 236.201 131.6 239.001 131.067 239.534C129.467 241.134 101.067 244.734 90.6667 244.734C85.4667 244.734 81.0667 244.067 80.5333 243.267C80.1333 242.467 78.8 233.001 77.8667 222.334C75.2 195.267 72 167.001 70.5333 157.401C69.8667 153.001 68.8 143.934 68.1333 137.401C67.3333 130.734 65.2 113.534 63.3333 99.1341C60.5333 77.4007 60.1333 69.6674 61.8667 68.6007C63.2 67.6674 92.6667 65.1341 100.667 65.2674L111.333 65.4007L111.733 72.6007ZM353.067 110.067C354.667 111.534 356.267 112.734 356.8 112.734C360.133 112.734 365.333 124.734 365.333 132.601C365.333 139.934 362.267 145.401 354.8 151.534C350.4 155.001 349.333 156.734 349.333 160.201C349.333 164.067 350.133 165.001 354.533 167.401C362.4 171.401 366.667 177.667 366.667 185.267C366.667 188.867 365.733 193.267 364.533 195.401C362.133 199.267 356.267 203.401 352.8 203.401C350.533 203.401 349.867 205.534 348.8 216.334C347.733 227.267 343.733 231.401 334.133 231.401C321.6 231.401 314.133 215.801 324.133 210.734C329.333 207.934 332.8 208.201 336.133 211.534C338.267 213.667 338.8 215.267 338 218.867C337.467 222.334 337.6 223.401 339.2 223.401C342.133 223.401 344 219.134 344 212.467C344 205.667 342.267 203.401 336.933 203.401C331.333 203.401 322.133 193.934 320 186.067C318.133 179.134 318.933 169.267 322 163.534C324.667 158.334 333.867 149.401 339.333 146.734L343.733 144.734L344.267 127.801C344.533 118.334 345.2 109.934 345.733 109.001C347.333 106.734 349.733 107.001 353.067 110.067Z" stroke="black"/>
</g>
<path d="M129.733 93.3342C125.467 94.6675 124 97.4675 126.533 98.9342C127.2 99.4675 130.8 99.0675 134.533 98.2675C139.867 97.2008 141.333 96.2675 141.333 94.2675C141.333 91.3342 137.067 91.0675 129.733 93.3342Z" fill="#D92A1D"/>
<path d="M130.4 107.867C126.933 109.867 127.467 113.067 131.2 113.067C138.133 113.067 142.667 111.467 142.667 108.934C142.667 106.934 141.733 106.401 137.733 106.401C134.933 106.401 131.6 107.067 130.4 107.867Z" fill="#D92A1D"/>
<path d="M135.6 120.134C130.8 121.067 129.333 121.867 129.6 123.601C130.133 126.534 139.733 127.201 143.333 124.534C145.733 122.801 145.733 122.401 144 120.667C142.4 119.334 140.533 119.201 135.6 120.134Z" fill="#D92A1D"/>
<path d="M132.4 136.401C131.2 139.601 132.533 140.134 139.867 139.067C144.4 138.401 146.667 137.467 146.667 136.267C146.667 133.467 133.6 133.601 132.4 136.401Z" fill="#D92A1D"/>
<path d="M134 149.067C132.4 151.601 134.8 153.067 140.4 153.067C146.667 153.067 150.133 151.467 148.8 149.201C147.6 147.334 135.067 147.201 134 149.067Z" fill="#D92A1D"/>
<path d="M136 163.734C136 166.134 136.933 166.401 143.333 166.401C149.733 166.401 150.667 166.134 150.667 163.734C150.667 161.334 149.733 161.068 143.333 161.068C136.933 161.068 136 161.334 136 163.734Z" fill="#D92A1D"/>
<path d="M143.733 175.467C138.267 175.867 137.333 176.267 137.333 178.667C137.333 181.201 137.867 181.334 144.267 180.667C156.133 179.201 155.6 174.667 143.733 175.467Z" fill="#D92A1D"/>
<path d="M145.333 187.601C140.533 188.268 139.333 188.934 139.333 191.068C139.333 193.468 140 193.734 145.333 193.201C148.667 193.068 152 192.268 152.933 191.468C154.533 190.268 153.867 186.267 152.133 186.667C151.733 186.667 148.667 187.201 145.333 187.601Z" fill="#D92A1D"/>
<path d="M145.333 202.267C142.267 202.801 140.533 203.867 140.267 205.601C139.733 207.867 140.4 208.001 145.867 207.467C152.133 206.667 156.533 204.267 155.2 202.267C154.4 200.934 152.533 200.934 145.333 202.267Z" fill="#D92A1D"/>
<path d="M298.133 115.467C297.733 116.267 298 117.334 298.8 117.734C300.8 119.067 302.133 117.334 300.4 115.601C299.467 114.667 298.667 114.667 298.133 115.467Z" fill="#D92A1D"/>
<path d="M288 120.534C288 121.734 288.933 122.401 290.267 122.134C293.6 121.467 294 118.401 290.8 118.401C289.2 118.401 288 119.201 288 120.534Z" fill="#D92A1D"/>
<path d="M309.333 122.401C309.333 123.067 310 123.734 310.667 123.734C311.467 123.734 312 123.067 312 122.401C312 121.601 311.467 121.067 310.667 121.067C310 121.067 309.333 121.601 309.333 122.401Z" fill="#D92A1D"/>
<path d="M301.867 124.268C300.8 127.201 302.267 128.668 304.267 126.668C305.467 125.468 305.467 124.668 304.267 123.468C303.067 122.268 302.533 122.534 301.867 124.268Z" fill="#D92A1D"/>
<path d="M292 130.534C292 133.734 295.067 133.334 295.733 130.001C296 128.668 295.333 127.734 294.133 127.734C292.8 127.734 292 128.934 292 130.534Z" fill="#D92A1D"/>
<path d="M284.933 131.334C283.2 132.934 284 134.401 286.667 134.401C288.133 134.401 289.333 133.468 289.333 132.401C289.333 130.401 286.533 129.601 284.933 131.334Z" fill="#D92A1D"/>
<path d="M298 135.734C297.467 136.534 297.6 137.868 298.4 138.668C299.2 139.468 300 139.468 300.667 138.401C301.2 137.601 301.067 136.268 300.267 135.468C299.467 134.668 298.667 134.668 298 135.734Z" fill="#D92A1D"/>
<path d="M291.333 140.934C290.933 141.601 291.2 142.534 292 143.067C292.667 143.467 293.333 142.934 293.333 141.867C293.333 139.467 292.533 139.067 291.333 140.934Z" fill="#D92A1D"/>
<path d="M282.8 142.267C280.8 143.601 281.733 147.734 284 147.734C286 147.734 287.333 143.867 285.867 142.401C285.2 141.734 283.867 141.734 282.8 142.267Z" fill="#D92A1D"/>
<path d="M295.333 149.068C295.733 149.734 296.4 150.401 296.8 150.401C297.067 150.401 297.333 149.734 297.333 149.068C297.333 148.268 296.667 147.734 295.867 147.734C295.2 147.734 294.933 148.268 295.333 149.068Z" fill="#D92A1D"/>
<path d="M286.667 151.734C286.667 152.401 287.333 153.067 288 153.067C288.8 153.067 289.333 152.401 289.333 151.734C289.333 150.934 288.8 150.401 288 150.401C287.333 150.401 286.667 150.934 286.667 151.734Z" fill="#D92A1D"/>
<path d="M279.2 155.067C278 158.134 281.067 161.067 282.667 158.401C283.333 157.334 283.733 155.867 283.6 155.201C282.8 152.934 280 152.801 279.2 155.067Z" fill="#D92A1D"/>
<path d="M298.267 157.867C297.2 158.934 298.4 161.067 300.133 161.067C300.8 161.067 301.333 160.134 301.333 159.067C301.333 157.067 299.733 156.401 298.267 157.867Z" fill="#D92A1D"/>
<path d="M288 162.401C288 163.067 288.667 163.734 289.333 163.734C290.133 163.734 290.667 163.067 290.667 162.401C290.667 161.601 290.133 161.067 289.333 161.067C288.667 161.067 288 161.601 288 162.401Z" fill="#D92A1D"/>
<path d="M276.933 166.001C275.6 167.201 275.733 171.734 277.067 171.734C279.067 171.734 281.067 168.801 280.4 166.934C279.6 164.934 278.267 164.534 276.933 166.001Z" fill="#D92A1D"/>
<path d="M293.6 170.534C293.867 171.334 294.667 171.867 295.333 171.867C296 171.867 296.8 171.334 297.067 170.534C297.333 169.734 296.533 169.067 295.333 169.067C294.133 169.067 293.333 169.734 293.6 170.534Z" fill="#D92A1D"/>
<path d="M284 175.201C284 177.467 286.933 177.067 287.733 174.667C288 173.734 287.333 173.067 286.133 173.067C284.933 173.067 284 174.001 284 175.201Z" fill="#D92A1D"/>
<path d="M273.333 179.734C273.333 180.401 274.267 181.067 275.467 181.067C276.533 181.067 277.067 180.401 276.667 179.734C276.267 178.934 275.333 178.401 274.533 178.401C273.867 178.401 273.333 178.934 273.333 179.734Z" fill="#D92A1D"/>
<path d="M290.667 182.268C290.667 183.068 291.333 184.001 292 184.401C292.8 184.801 293.333 184.268 293.333 183.201C293.333 182.001 292.8 181.068 292 181.068C291.333 181.068 290.667 181.601 290.667 182.268Z" fill="#D92A1D"/>
<path d="M280 185.601C280 186.667 280.667 188.001 281.333 188.401C282.133 188.801 282.667 188.001 282.667 186.534C282.667 184.934 282.133 183.734 281.333 183.734C280.667 183.734 280 184.534 280 185.601Z" fill="#D92A1D"/>
<path d="M271.6 188.667C269.867 190.267 270.667 193.067 272.667 193.067C273.733 193.067 274.667 191.867 274.667 190.401C274.667 187.734 273.2 186.934 271.6 188.667Z" fill="#D92A1D"/>
<path d="M288.667 191.867C288.133 192.667 288.267 193.867 289.067 194.667C289.867 195.467 290.533 195.201 291.067 193.867C292 191.467 289.867 189.734 288.667 191.867Z" fill="#D92A1D"/>
<path d="M276.267 197.201C276.533 198.001 277.333 198.534 278 198.534C278.667 198.534 279.467 198.001 279.733 197.201C280 196.401 279.2 195.734 278 195.734C276.8 195.734 276 196.401 276.267 197.201Z" fill="#D92A1D"/>
<path d="M269.867 201.201C269.467 202.001 269.733 203.334 270.533 204.134C271.6 205.201 272 204.801 272 202.667C272 199.467 271.333 198.934 269.867 201.201Z" fill="#D92A1D"/>
<path d="M284.667 205.201C283.333 207.201 284.8 208.267 287.333 207.201C288.533 206.801 289.067 205.867 288.667 205.067C287.6 203.334 285.733 203.334 284.667 205.201Z" fill="#D92A1D"/>
<path d="M274.667 209.201C274.667 212.401 277.733 212.001 278.4 208.667C278.667 207.334 278 206.401 276.8 206.401C275.467 206.401 274.667 207.601 274.667 209.201Z" fill="#D92A1D"/>
<path d="M266.667 212.401C266.667 213.468 267.6 214.401 268.667 214.401C269.733 214.401 270.667 213.468 270.667 212.401C270.667 211.334 269.733 210.401 268.667 210.401C267.6 210.401 266.667 211.334 266.667 212.401Z" fill="#D92A1D"/>
<path d="M77.0668 126.001C78.0001 126.401 79.2001 126.267 79.6001 125.867C80.1334 125.467 79.3334 125.067 77.8668 125.201C76.4001 125.201 76.0001 125.601 77.0668 126.001Z" fill="#D92A1D"/>
<path d="M351.467 127.334C351.067 127.867 350.667 131.334 350.667 135.201C350.667 140.667 351.067 142.134 352.533 141.601C355.333 140.534 357.733 134.934 356.8 131.334C356 128.001 353.067 125.867 351.467 127.334Z" fill="#D92A1D"/>
<path d="M334.4 171.467C330.133 176.001 326.667 180.934 326.133 183.334C324.267 191.601 332 201.067 340.533 201.067C343.867 201.067 344 200.801 344 192.401C344 187.601 343.467 183.734 342.8 183.734C341.2 183.734 340 187.201 340 191.867C340 194.401 339.333 195.734 338 195.734C334.8 195.734 329.333 189.601 329.333 186.001C329.333 181.867 336.533 172.001 340.667 170.401C342.667 169.601 344 168.134 344 166.401C344 162.267 342.267 163.067 334.4 171.467Z" fill="#D92A1D"/>
<path d="M350.133 183.334C349.067 184.401 349.067 199.067 350.133 200.134C350.533 200.534 352.4 200.267 354.133 199.467C358 197.601 359.6 192.667 357.6 188.401C356 185.067 351.6 182.001 350.133 183.334Z" fill="#D92A1D"/>
<defs>
<filter id="filter0_d_2016_44" x="0" y="0" width="415.333" height="307.401" filterUnits="userSpaceOnUse" color-interpolation-filters="sRGB">
<feFlood flood-opacity="0" result="BackgroundImageFix"/>
<feColorMatrix in="SourceAlpha" type="matrix" values="0 0 0 0 0 0 0 0 0 0 0 0 0 0 0 0 0 0 127 0" result="hardAlpha"/>
<feOffset dy="4"/>
<feGaussianBlur stdDeviation="2"/>
<feComposite in2="hardAlpha" operator="out"/>
<feColorMatrix type="matrix" values="0 0 0 0 0 0 0 0 0 0 0 0 0 0 0 0 0 0 0.25 0"/>
<feBlend mode="normal" in2="BackgroundImageFix" result="effect1_dropShadow_2016_44"/>
<feBlend mode="normal" in="SourceGraphic" in2="effect1_dropShadow_2016_44" result="shape"/>
</filter>
</defs>
</svg>
